<svg id="Layer_1" data-name="Layer 1" xmlns="http://www.w3.org/2000/svg" viewBox="0 0 48 21"><defs><style>.cls-1{fill:#0e97db;}.cls-2{fill:#2f201c;}.cls-3{fill:#e9a448;}.cls-4{fill:#fff;}.cls-5{fill:#dbdbdb;}.cls-6{fill:#df8432;}.cls-7{fill:#df8332;}.cls-8{fill:#b7572a;}.cls-9{fill:#f3ca71;}.cls-10{fill:#ce722e;}.cls-11{fill:#de8332;}.cls-12{fill:#f2de5a;}.cls-13{fill:#a12b2a;}.cls-14{fill:#fbfbf9;}.cls-15{fill:#fffbfa;}.cls-16{fill:#bf3433;}.cls-17{fill:#c33533;}.cls-18{fill:#d8d8d7;}.cls-19{fill:#d8d8d8;}.cls-20{fill:#f8f7f5;}.cls-21{fill:#c2c2c1;}.cls-22{fill:#fffffb;}.cls-23{fill:#cacbcc;}.cls-24{fill:#cbcdcd;}.cls-25{fill:#f8f7f7;}.cls-26{fill:#f6f6f6;}.cls-27{fill:#573e39;}.cls-28{fill:#e08880;}.cls-29{fill:#e9aea6;}</style></defs><path class="cls-1" d="M26.592,15.1674a1.5906,1.5906,0,0,1-.8025-.1583.963.963,0,0,1-.3816-.3941q-.6852-1.4079-1.2832-2.6983T22.9071,9.3111q.0126,1.421.04,2.8295t.0525,2.8291c0,.132-.07.1977-.21.1977h-.7243a1.5126,1.5126,0,0,1-1.0593-.2962,1.1571,1.1571,0,0,1-.3093-.8748c0-.1057.0066-.283.02-.5332s.0328-.5464.06-.8885.0544-.7172.0854-1.1256.0633-.8216.0985-1.2432q.0789-1,.1314-1.6582t.086-1.1121q.0323-.4542.046-.7763t.0262-.6383c0-.1317.07-.1977.2108-.1977h1.0527a2.153,2.153,0,0,1,.7106.0988,1.249,1.249,0,0,1,.4538.27A1.356,1.356,0,0,1,23.96,6.58q.1056.2172.1976.4541.3153.816.5589,1.408t.4282,1.04q.1836.4473.3224.7762t.2562.6055c.0794.1839.1582.3619.237.5327s.1624.3582.25.56q0-.7774-.0065-1.5991t-.0132-1.606q-.0072-.7829-.0131-1.5068T26.171,5.9419q0-.1183.2239-.1186h.7237a2.253,2.253,0,0,1,.6909.0857.9024.9024,0,0,1,.4013.25.84.84,0,0,1,.1911.4016,2.8718,2.8718,0,0,1,.0459.5395q0,.3291-.0394,1.0067t-.0925,1.52q-.0529.842-.1183,1.7436t-.1248,1.6648q-.06.7639-.1056,1.2969c-.03.3547-.05.5637-.0592.6246a.1838.1838,0,0,1-.0722.1582.2723.2723,0,0,1-.1648.0526Z"/><path class="cls-1" d="M32.2378,11.3643l-.25,3.6054c-.009.0705-.0155.1207-.02.1517s-.046.046-.1248.046h-.7243a1.54,1.54,0,0,1-1.0528-.29,1.0694,1.0694,0,0,1-.3158-.8288q0-.2634.0394-.9017t.1057-1.4546q.0654-.815.1313-1.7236t.132-1.711q.0654-.8025.1051-1.408t.0394-.8291c0-.1317.07-.1977.2108-.1977h4.6325a.2777.2777,0,0,1,.1445.04.1555.1555,0,0,1,.0656.1448l-.0525.7763a1.1344,1.1344,0,0,1-.2174.6383.9678.9678,0,0,1-.7828.2436H32.488l-.132,1.8556h1.869a.275.275,0,0,1,.1445.0394.154.154,0,0,1,.0657.1448l-.0526.7766a1.1349,1.1349,0,0,1-.2167.6383.97.97,0,0,1-.7834.2436Z"/><path class="cls-1" d="M40.121,7.666l-.5,7.3037c-.009.132-.0573.1977-.1445.1977h-.7237a1.54,1.54,0,0,1-1.0533-.29,1.0691,1.0691,0,0,1-.3159-.8288q0-.198.02-.5924t.06-.9279q.0394-.5329.0854-1.1584t.0985-1.2635q.0528-.6378.0985-1.2695t.086-1.1713H35.725q-.1443,0-.1445-.1845l.0394-.7368a1.7634,1.7634,0,0,1,.0591-.3356.8271.8271,0,0,1,.1517-.2962.7578.7578,0,0,1,.27-.21.9211.9211,0,0,1,.4012-.0791h5.8829a.2777.2777,0,0,1,.1445.04.1553.1553,0,0,1,.0657.1448l-.0526.7763a1.1351,1.1351,0,0,1-.2173.6383.9682.9682,0,0,1-.7829.2436Z"/><g id="Design"><path class="cls-2" d="M7.9518,14.3232a2.2335,2.2335,0,0,1,.5021-1.4272.3193.3193,0,0,0-.1057-.4757A3.6336,3.6336,0,0,1,6.3924,9.83a5.6188,5.6188,0,0,1,.185-2.5636,1.2928,1.2928,0,0,0,.0265-.555A6.7608,6.7608,0,0,1,6.71,2.8793c.3171-.925.8193-1.1364,1.7179-.7136a6.13,6.13,0,0,1,1.4007.925.2841.2841,0,0,0,.37.0529,6.1658,6.1658,0,0,1,4.8894.0264.281.281,0,0,0,.3172-.0528,6.4672,6.4672,0,0,1,1.3215-.8986,2.8132,2.8132,0,0,1,.6607-.2379.8336.8336,0,0,1,.925.4229,4.2234,4.2234,0,0,1,.4757,1.48,7.2175,7.2175,0,0,1-.1585,3.013.4566.4566,0,0,0,.0264.2643A5.6321,5.6321,0,0,1,18.9463,9.46a3.6376,3.6376,0,0,1-2.0086,2.96.3094.3094,0,0,0-.1057.4757,2.4141,2.4141,0,0,1,.4757,1.9293c0,.0793-.0529.1322.0529.2115a1.6753,1.6753,0,0,1,.74,1.6386,3.3587,3.3587,0,0,1-.3436,1.2157,1.2745,1.2745,0,0,1-1.1893.7665h-.4229a1.8759,1.8759,0,0,0-.925.185,1.7526,1.7526,0,0,1-1.3215.0793c-.0264,0-.0528-.0265-.0793-.0265-.2907-.3171-.6607-.2378-1.0307-.2378h-.555a1.3448,1.3448,0,0,0-.6872.185,1.5913,1.5913,0,0,1-1.6386-.0793.6065.6065,0,0,0-.37-.1057H8.7182a1.3017,1.3017,0,0,1-1.1893-.7665,3.1652,3.1652,0,0,1-.3172-1.11.4335.4335,0,0,0-.185-.3172A2.9264,2.9264,0,0,1,6.1281,12.42c.0265-.0265.0529-.0529.0529-.0793a.2133.2133,0,0,1,.2379-.1057c.1057.0264.1321.1057.1585.2114a2.4161,2.4161,0,0,0,.74,1.4536A1.8993,1.8993,0,0,0,7.9518,14.3232Z"/><path class="cls-3" d="M6.736,9.5923a4.8618,4.8618,0,0,1,.185-2.1407A6.2411,6.2411,0,0,1,9.1939,4.1743c.1586-.1321.185-.2378.0529-.3964a6.2666,6.2666,0,0,0-.6607-.7664c.1057-.1058.185-.0265.2642.0264a5.0443,5.0443,0,0,1,.8458.6343.4962.4962,0,0,0,.5021.0529,5.9391,5.9391,0,0,1,3.6473-.37,6.5371,6.5371,0,0,1,1.2157.3965.3257.3257,0,0,0,.37-.0529,6.4187,6.4187,0,0,1,.8458-.6343c.1057-.0793.2114-.1586.3435-.0793a8.16,8.16,0,0,0-.6343.7136c-.185.2643-.185.3172.0793.5022A6.2685,6.2685,0,0,1,18.5234,8.8a2.456,2.456,0,0,1-.0264.7664,1.0734,1.0734,0,0,1-.9779.5286,2.2238,2.2238,0,0,1-1.5857-.5286,15.917,15.917,0,0,1-1.2158-1.11,6.1734,6.1734,0,0,0-.7928-.6607,2.2207,2.2207,0,0,0-2.643.0264,9.3158,9.3158,0,0,0-1.0836.9514,10.5152,10.5152,0,0,1-.7928.74,2.4033,2.4033,0,0,1-1.6387.5814A1.2628,1.2628,0,0,1,6.736,9.5923Z"/><path class="cls-4" d="M6.736,9.5923a2.1226,2.1226,0,0,0,.7665.3965,2.1823,2.1823,0,0,0,1.8764-.555c.4758-.3965.9251-.8458,1.3744-1.2686a3.06,3.06,0,0,1,1.2421-.7665,2.342,2.342,0,0,1,2.1408.5022c.555.4493,1.0572.9779,1.6122,1.48a2.1886,2.1886,0,0,0,1.9822.6343,1.6,1.6,0,0,0,.74-.4229,2.3813,2.3813,0,0,1-.0793.4229,6.6933,6.6933,0,0,1-.4757.7136,4.9311,4.9311,0,0,1-1.7179,1.11,9.0763,9.0763,0,0,1-2.3522.4758,12.0569,12.0569,0,0,1-3.6473-.1851,5.2533,5.2533,0,0,1-2.6957-1.295,3.0462,3.0462,0,0,1-.6608-.8721A1.5174,1.5174,0,0,1,6.736,9.5923Z"/><path class="cls-5" d="M6.8417,9.9888a4.1992,4.1992,0,0,1,.5286.6343,4.614,4.614,0,0,0,1.2422.925,7.9742,7.9742,0,0,0,2.9336.7136,11.6386,11.6386,0,0,0,3.8323-.2643A5.1089,5.1089,0,0,0,17.8627,10.65a3.5118,3.5118,0,0,0,.37-.5021c.0265-.0529.0529-.1322.1586-.1322a3.1588,3.1588,0,0,1-1.48,1.9558,6.8714,6.8714,0,0,1-2.7222.8721,11.4089,11.4089,0,0,1-4.3344-.2378A4.6809,4.6809,0,0,1,7.476,11.2574,2.7482,2.7482,0,0,1,6.8417,9.9888Z"/><path class="cls-3" d="M13.74,18.1026a2.2936,2.2936,0,0,1-.0265-.6079V16.1732c0-.0528.0265-.0528.0529-.0264.0528.0529.0264.1321.0528.2114a16.5054,16.5054,0,0,0,1.5065-1.5329,2.06,2.06,0,0,0,.5286-1.1364c0-.0265.0264-.0793.0264-.1057.1057-.0529.185-.0793.2907-.1322.1322,0,.1322.1322.1586.2114a2.5013,2.5013,0,0,1,.0265,1.0836,6.5537,6.5537,0,0,1-.5815,1.85,5.5467,5.5467,0,0,1-.5814,1.11.8257.8257,0,0,1-.185.2379.1593.1593,0,0,1-.1058.0264,1.9955,1.9955,0,0,0-1.0307.1322A.12.12,0,0,1,13.74,18.1026Z"/><path class="cls-3" d="M11.4933,16.5961c0,.5021.0264,1.0043,0,1.5065a.1687.1687,0,0,1-.1586,0,1.8553,1.8553,0,0,0-1.0043-.1058.2066.2066,0,0,1-.2114-.0264A1.5678,1.5678,0,0,0,9.96,17.6,9.8342,9.8342,0,0,1,8.93,15.0368a3.0643,3.0643,0,0,1-.0528-1.2951c.0264-.1057.0528-.2378.1586-.2907.1057.0529.185.0793.2907.1322a.24.24,0,0,1,.0793.185,1.8329,1.8329,0,0,0,.4228.9514,15.8644,15.8644,0,0,0,1.4536,1.5329A.64.64,0,0,1,11.4933,16.5961Z"/><path class="cls-5" d="M11.9161,17.4154V16.2c0-.1851-.0792-.2908-.2643-.2643a.43.43,0,0,1-.1321-.2379,4.7548,4.7548,0,0,0-.74-1.4008.6254.6254,0,0,0-.3436-.2907c-.0529-.0264-.1057-.0264-.1057-.1321.4229.0528.8457.1586,1.2686.185.1586,0,.1057.0793.0528.185a.973.973,0,0,0,.2379,1.11,1.0526,1.0526,0,0,0,1.1365.2115,1.0409,1.0409,0,0,0,.555-1.2951c-.0793-.2114,0-.2114.1586-.2114.3171-.0264.6343-.0793.9778-.1322.0265.0793-.0264.1058-.0528.1586a4.3506,4.3506,0,0,0-.925,1.7179c-.0265.0529-.0265.1057-.0793.1322-.2379-.0265-.2908.0264-.2908.2643,0,.3964,0,.7928-.0264,1.1893A1.1178,1.1178,0,0,1,11.9161,17.4154Z"/><path class="cls-4" d="M10.33,13.9c.5021.185.6871.6343.925,1.0572a2.5863,2.5863,0,0,1,.37.9779c-.1586.0792-.1321.2378-.1321.37v.2907A23.6294,23.6294,0,0,1,9.7489,14.72a1.7754,1.7754,0,0,1-.4228-1.1364C9.67,13.6889,9.9868,13.7946,10.33,13.9Z"/><path class="cls-4" d="M13.6076,15.9618a3.1658,3.1658,0,0,1,.5286-1.2686,3.8688,3.8688,0,0,1,.555-.74c.3964-.1058.8193-.2115,1.1893-.3436a1.0855,1.0855,0,0,1-.2114.8457,7.8092,7.8092,0,0,1-1.295,1.5065,6.874,6.874,0,0,0-.6079.6343c-.0793-.1322,0-.2643-.0529-.3964A.2575.2575,0,0,0,13.6076,15.9618Z"/><path class="cls-6" d="M14.9819,17.9176a9.2646,9.2646,0,0,0,1.2422-2.9337,2.5331,2.5331,0,0,0-.0529-1.5329c.0265-.0264.0793-.0528.1058-.0793.3171-.1586.3171-.1586.4493.1586a2.6668,2.6668,0,0,1,.0528,1.6386A9.27,9.27,0,0,1,15.59,17.8911c-.0529.0793-.1057.1322-.1586.2115C15.2462,18.1026,15.0876,18.1026,14.9819,17.9176Z"/><path class="cls-6" d="M9.0354,13.451A3.4344,3.4344,0,0,0,9.1939,15.75a8.05,8.05,0,0,0,.9515,1.9821.14.14,0,0,1-.0264.2115.2719.2719,0,0,1-.3172.185,5.37,5.37,0,0,1-.8986-1.6122,5.6879,5.6879,0,0,1-.555-1.9822,2.0907,2.0907,0,0,1,.185-1.0572c.1321-.2643.1321-.2643.37-.1057C8.9561,13.3982,8.9825,13.4246,9.0354,13.451Z"/><path class="cls-7" d="M15.8541,18.2611a10.97,10.97,0,0,0,1.2422-2.7222c.0528-.1586.1057-.1057.185-.0264a1.5062,1.5062,0,0,1,.37,1.1893,2.739,2.739,0,0,1-.2907,1.0043.9449.9449,0,0,1-.74.555A7.3735,7.3735,0,0,1,15.8541,18.2611Z"/><path class="cls-7" d="M8.9561,18.2611A1.05,1.05,0,0,1,7.74,17.389a1.9691,1.9691,0,0,1-.0793-1.4008,1.1057,1.1057,0,0,1,.2908-.4757c.0792-.0793.1321-.1322.1585.0264a10.3742,10.3742,0,0,0,1.1629,2.59c.0529.1057.0529.1321-.0793.1321Z"/><path class="cls-8" d="M17.942,5.6808a7.6317,7.6317,0,0,0-1.3479-1.5593c-.2907-.2379-.2907-.2643-.0264-.555a4.38,4.38,0,0,1,1.0043-.8458.3631.3631,0,0,1,.1321.2115,4.7675,4.7675,0,0,1,.2908,1.5064,3.9855,3.9855,0,0,1,.0264.7929C18.0742,5.4165,18.0742,5.5751,17.942,5.6808Z"/><path class="cls-8" d="M7.6346,2.7472A3.94,3.94,0,0,1,8.7975,3.7779c.0528.0793.0793.1322,0,.2114A7.0673,7.0673,0,0,0,7.291,5.6808a.2684.2684,0,0,1-.1321-.2643,7.6721,7.6721,0,0,1,.2643-2.3258A.4122.4122,0,0,1,7.6346,2.7472Z"/><path class="cls-9" d="M16.6205,2.9586a2.5081,2.5081,0,0,0-.8985.5814.7282.7282,0,0,1-.9515.1851,5.248,5.248,0,0,0-2.7751-.3965,5.0464,5.0464,0,0,0-1.9557.555c-.0793.0529-.1322.0265-.2115-.0264-.3436-.2643-.6607-.555-1.0307-.7929a.352.352,0,0,0-.2114-.0793c-.2379-.185-.4493-.37-.7136-.555a1.4338,1.4338,0,0,1,.6343.2379A7.6356,7.6356,0,0,1,9.6961,3.54a.3242.3242,0,0,0,.4229.0793,5.7787,5.7787,0,0,1,4.9422,0,.32.32,0,0,0,.3965-.0528,5.8274,5.8274,0,0,1,1.5857-1.0836c.0793-.0265.1322-.0529.2114-.0793.0265,0,.0265,0,.0793.0264C17.07,2.615,16.8584,2.8,16.6205,2.9586Z"/><path class="cls-7" d="M6.1281,13.3982a1.5363,1.5363,0,0,1,.1322-.4229,3.0849,3.0849,0,0,0,.7664,1.1893,2.4974,2.4974,0,0,0,.8193.555c.2115.1057.2115.2114.0265.3436a1.5255,1.5255,0,0,0-.4758.5286.2577.2577,0,0,1-.2378-.1057,2.7316,2.7316,0,0,1-.9779-1.5594A.934.934,0,0,1,6.1281,13.3982Z"/><path class="cls-10" d="M7.6346,2.7472A6.4381,6.4381,0,0,0,7.2382,5.39a1.1249,1.1249,0,0,0,.0528.2907c-.1057.2114-.2114.4229-.3436.6607A1.1382,1.1382,0,0,1,6.8417,5.76a6.4648,6.4648,0,0,1,.2115-2.5636c.0264-.1058.0792-.2115.1057-.3172C7.291,2.5093,7.291,2.5093,7.6346,2.7472Z"/><path class="cls-10" d="M17.942,5.6808a7.0748,7.0748,0,0,0-.1586-2.3522,5.3473,5.3473,0,0,1-.185-.6079l.0265-.0264c.2907-.185.2907-.185.4228.1322a5.3262,5.3262,0,0,1,.37,1.9293A7.8327,7.8327,0,0,1,18.3384,6.13a.6726.6726,0,0,1-.0528.185C18.18,6.1037,18.0742,5.8922,17.942,5.6808Z"/><path class="cls-11" d="M11.9161,17.4154a1.4123,1.4123,0,0,0,1.3744,0c0,.2379.0264.4493.0264.6872,0,.1321-.0264.1585-.1322.1585H12.0219c-.1058,0-.1586-.0264-.1322-.1321A6.4478,6.4478,0,0,0,11.9161,17.4154Z"/><path class="cls-5" d="M6.1281,13.3982A2.8192,2.8192,0,0,0,7.37,15.5918a1.9821,1.9821,0,0,0-.1321.4228c-.0265.1058-.0529.1322-.1322.0529A2.5225,2.5225,0,0,1,6.1281,13.3982Z"/><path class="cls-12" d="M12.4183,15.2482a.62.62,0,1,1,.5286-1.11A.6972.6972,0,0,1,12.4183,15.2482Z"/><path class="cls-13" d="M8.9032,12.87c-.0264-.1586.0264-.185.1586-.1322a9.0341,9.0341,0,0,0,2.6429.5286c.2643,0,.2907.0264.2643.3436-.0264.2378-.185.1057-.2907.1321-.0265,0-.0793-.0264-.1057-.0264.0264-.0529.0528-.0529.1057-.0793A7.3844,7.3844,0,0,1,8.9032,12.87Z"/><path class="cls-13" d="M13.6076,13.6889c-.3436.0793-.37.0528-.37-.2643,0-.1586.0793-.185.2114-.185a8.83,8.83,0,0,0,2.0351-.3172,6.7977,6.7977,0,0,0,.6871-.2114c.0793-.0264.1586-.0529.1322.0793a1.229,1.229,0,0,1-.555.3436,8.4394,8.4394,0,0,1-2.1144.4757c-.0264,0-.0792-.0264-.0528.0264A.0926.0926,0,0,0,13.6076,13.6889Z"/><path class="cls-14" d="M10.2775,17.9176a1.6468,1.6468,0,0,1,1.2158.185c0,.2378-.0793.4228-.3172.4757a3.2247,3.2247,0,0,1-.7136,0h0c0-.1057.1057-.1057.1586-.1057a3.0185,3.0185,0,0,1-.2907-.2908C10.2775,18.1026,10.2247,18.0233,10.2775,17.9176Z"/><path class="cls-15" d="M13.74,18.1026a1.562,1.562,0,0,1,1.1893-.185c.1057.0792.0264.1321,0,.2114a1.5135,1.5135,0,0,1-.3965.4229c-.1321.1057-.2907.0264-.4493.0264C13.8455,18.5254,13.74,18.3933,13.74,18.1026Z"/><path class="cls-16" d="M13.6076,13.6889c-.1057-.0265-.2907.0528-.2907-.0529,0-.1321.185-.0528.2643-.0793a10.715,10.715,0,0,0,2.035-.4228c.2379-.0793.4493-.2115.6872-.3172.0264.1322-.0793.1586-.185.2114a6.5268,6.5268,0,0,1-2.0879.6079A2.3162,2.3162,0,0,1,13.6076,13.6889Z"/><path class="cls-17" d="M8.9032,12.87c.0793-.0529.1322,0,.2114.0528a6.0811,6.0811,0,0,0,2.3522.6079,2.0354,2.0354,0,0,1,.3965.0529c.0528,0,.1057,0,.0793.0792,0,.0529-.0529.0529-.1057.0529H11.599a6.4779,6.4779,0,0,1-2.5372-.6872C8.9825,12.9753,8.9032,12.9489,8.9032,12.87Z"/><path class="cls-18" d="M14.0569,18.5783c.4493.0528.6079-.3172.8457-.5815v-.0792h.0793a1.58,1.58,0,0,1,.4229.2114A1.204,1.204,0,0,1,14.0569,18.5783Z"/><path class="cls-19" d="M10.2775,17.9176c.0793.2642.3172.37.4758.5814-.0793.0793-.2379-.0264-.3172.0793a.9513.9513,0,0,1-.6607-.4493c.1057-.0529.2114-.1322.3171-.185A.3921.3921,0,0,0,10.2775,17.9176Z"/><path class="cls-20" d="M12.4183,15.2482c.555-.2379.6343-.3964.5022-1.1365a.6244.6244,0,0,1-.5022,1.1365Z"/><path class="cls-21" d="M12.63,13.636c-.1321,0-.2643.0793-.2643-.1586,0-.2114.1058-.185.2379-.185s.2643-.0528.2643.185S12.709,13.61,12.63,13.636Z"/><path class="cls-19" d="M10.4625,18.5783a6.4346,6.4346,0,0,1,.7136,0A1.6272,1.6272,0,0,1,10.4625,18.5783Z"/><path class="cls-2" d="M8.6389,7.5573a.8522.8522,0,0,1,.8193-.8722.8812.8812,0,0,1,.9515.7665.52.52,0,0,1-.3172.6078,1.5488,1.5488,0,0,1-1.0307.1322A.57.57,0,0,1,8.6389,7.5573Z"/><path class="cls-2" d="M15.8277,8.218a2.0778,2.0778,0,0,1-.5286-.1057.6345.6345,0,0,1-.4229-.8986.8923.8923,0,0,1,1.0043-.555.8821.8821,0,0,1,.7136.8986C16.5941,8.0066,16.33,8.218,15.8277,8.218Z"/><path class="cls-22" d="M10.859,5.76a.5293.5293,0,0,1-.6343.5022.0969.0969,0,0,1-.0793-.0265c-.3965-.0528-.6079-.2378-.5815-.5286a.73.73,0,0,1,.7665-.5814A.6118.6118,0,0,1,10.859,5.76Z"/><path class="cls-22" d="M14.3741,5.76a.607.607,0,0,1,.555-.6079.7249.7249,0,0,1,.74.6079.4.4,0,0,1-.185.37.9306.9306,0,0,1-.8722.0793A.5191.5191,0,0,1,14.3741,5.76Z"/><path class="cls-2" d="M11.599,8.2445a1.1954,1.1954,0,0,1,1.2157-.4229.7031.7031,0,0,1,.3172.0793.6084.6084,0,0,1,.5021.7136.8857.8857,0,0,1-.4757.6871c-.185.1057-.185.1057-.0264.2907.3436.185.5286.1586.7664-.1321a3.9021,3.9021,0,0,0,.2115-.3436.1716.1716,0,0,1,.2643-.0793.1832.1832,0,0,1,.0792.2643,1.3473,1.3473,0,0,1-.5814.6872.3283.3283,0,0,0-.1586.2114,1.4973,1.4973,0,0,1-.4757.925.9036.9036,0,0,1-1.3215.0265A1.64,1.64,0,0,1,11.44,10.2a.4024.4024,0,0,0-.1586-.2643,1.4415,1.4415,0,0,1-.5285-.6607.1832.1832,0,0,1,.0792-.2643.1768.1768,0,0,1,.2643.1057,1.4983,1.4983,0,0,0,.2115.3436.5238.5238,0,0,0,.8193.0529c.1057-.1322,0-.1586-.0793-.2379A.8928.8928,0,0,1,11.599,8.2445Z"/><path class="cls-23" d="M11.599,8.2445c-.0529.6078.2907.8985.7929,1.11a.476.476,0,0,1-.2379.1586A.9618.9618,0,0,1,11.599,8.2445Z"/><path class="cls-24" d="M13.1319,9.5659a.9383.9383,0,0,1-.3172-.2114,1.1833,1.1833,0,0,0,.8458-.7665.4446.4446,0,0,1-.0793.5022,1.3252,1.3252,0,0,1-.3965.37C13.1319,9.4866,13.079,9.4866,13.1319,9.5659Z"/><path class="cls-25" d="M9.6432,6.9758c.1586.0265.2643.0793.2643.2643a.2717.2717,0,0,1-.2643.2908A.2933.2933,0,0,1,9.3525,7.24.2577.2577,0,0,1,9.6432,6.9758Z"/><path class="cls-26" d="M15.8805,7.293a.2608.2608,0,0,1-.2643.2379.2934.2934,0,0,1-.2907-.2908.2881.2881,0,0,1,.2643-.2907A.3087.3087,0,0,1,15.8805,7.293Z"/><path class="cls-27" d="M12.6033,8.5352a1.4619,1.4619,0,0,1-.4757-.0529c-.2115-.1057-.2115-.2643-.0265-.3964a1.212,1.212,0,0,1,1.0044.0264c.1585.1057.1585.2643-.0265.3436A.5827.5827,0,0,1,12.6033,8.5352Z"/><path class="cls-28" d="M13.079,10.6759a.5153.5153,0,0,1-.9514,0,.2172.2172,0,0,1,.1321-.1321A.8765.8765,0,0,1,13.079,10.6759Z"/><path class="cls-29" d="M13.079,10.6759a1.3134,1.3134,0,0,0-.9514,0c-.1057-.0792-.1322-.1585.0264-.185a1.4672,1.4672,0,0,1,.9515,0C13.264,10.5438,13.1319,10.6231,13.079,10.6759Z"/></g></svg>