<svg id="Layer_1" data-name="Layer 1" xmlns="http://www.w3.org/2000/svg" viewBox="0 0 102.1971 26.7696"><defs><style>.cls-1{fill:#2f201c;}.cls-2{fill:#eaa548;}.cls-3{fill:#fff;}.cls-4{fill:#dcdcdc;}.cls-5{fill:#e08532;}.cls-6{fill:#e08432;}.cls-7{fill:#b8572a;}.cls-8{fill:#f4cb71;}.cls-9{fill:#cf722e;}.cls-10{fill:#df8432;}.cls-11{fill:#f3df5a;}.cls-12{fill:#a22b2a;}.cls-13{fill:#fcfcfa;}.cls-14{fill:#fffcfb;}.cls-15{fill:#c03433;}.cls-16{fill:#c43533;}.cls-17{fill:#d9d9d8;}.cls-18{fill:#d9d9d9;}.cls-19{fill:#f9f8f6;}.cls-20{fill:#c3c3c2;}.cls-21{fill:#fffffc;}.cls-22{fill:#cbcccd;}.cls-23{fill:#cccece;}.cls-24{fill:#f9f8f8;}.cls-25{fill:#f7f7f7;}.cls-26{fill:#573e39;}.cls-27{fill:#e18981;}.cls-28{fill:#eaafa7;}.cls-29,.cls-31{fill:#459bd2;}.cls-29,.cls-30,.cls-31{stroke:#459bd2;}.cls-29,.cls-30{stroke-linecap:round;stroke-linejoin:round;stroke-width:0.6219px;}.cls-30{fill:none;}.cls-31{stroke-miterlimit:10;stroke-width:0.311px;}</style></defs><g id="Design"><path class="cls-1" d="M4.9827,17.8455a2.6285,2.6285,0,0,1,.5908-1.6792.3757.3757,0,0,0-.1244-.56A4.2748,4.2748,0,0,1,3.148,12.5592a6.6085,6.6085,0,0,1,.2177-3.0164,1.521,1.521,0,0,0,.0311-.653,7.9542,7.9542,0,0,1,.1244-4.5089c.3731-1.0884.964-1.3372,2.0212-.84A7.2105,7.2105,0,0,1,7.1905,4.63a.3344.3344,0,0,0,.4354.0622,7.254,7.254,0,0,1,5.7527.0311.3307.3307,0,0,0,.3732-.0622,7.6151,7.6151,0,0,1,1.5548-1.0572,3.3081,3.3081,0,0,1,.7774-.28.981.981,0,0,1,1.0884.4975,4.9735,4.9735,0,0,1,.56,1.7414,8.4915,8.4915,0,0,1-.1866,3.545.5372.5372,0,0,0,.0311.3109,6.6273,6.6273,0,0,1,.3421,2.7054,4.28,4.28,0,0,1-2.3633,3.4828.3641.3641,0,0,0-.1244.56,2.84,2.84,0,0,1,.56,2.27c0,.0933-.0622.1555.0622.2488a1.971,1.971,0,0,1,.8707,1.928,3.9543,3.9543,0,0,1-.4042,1.43,1.5,1.5,0,0,1-1.3994.9018h-.4975a2.2084,2.2084,0,0,0-1.0884.2176,2.0612,2.0612,0,0,1-1.5548.0933c-.0311,0-.0622-.0311-.0933-.0311-.342-.3731-.7774-.28-1.2127-.28H10.02a1.5831,1.5831,0,0,0-.8085.2176,1.8722,1.8722,0,0,1-1.928-.0932.7139.7139,0,0,0-.4353-.1244h-.964a1.5315,1.5315,0,0,1-1.3993-.9018,3.7226,3.7226,0,0,1-.3732-1.3061.51.51,0,0,0-.2177-.3731,3.4432,3.4432,0,0,1-1.0572-4.7577c.0311-.0311.0622-.0622.0622-.0933a.2509.2509,0,0,1,.28-.1244c.1244.0311.1555.1244.1866.2488a2.8429,2.8429,0,0,0,.8707,1.71A2.2375,2.2375,0,0,0,4.9827,17.8455Z"/><path class="cls-2" d="M3.5523,12.2793A5.7206,5.7206,0,0,1,3.77,9.7605,7.3427,7.3427,0,0,1,6.4442,5.9046c.1866-.1555.2177-.28.0622-.4665a7.3814,7.3814,0,0,0-.7774-.9018c.1244-.1243.2177-.031.311.0311a5.9382,5.9382,0,0,1,.995.7464.5839.5839,0,0,0,.5909.0621,6.9868,6.9868,0,0,1,4.2912-.4353,7.6991,7.6991,0,0,1,1.4305.4664.383.383,0,0,0,.4353-.0622,7.5589,7.5589,0,0,1,.9951-.7463c.1244-.0932.2487-.1865.4042-.0932a9.6034,9.6034,0,0,0-.7463.84c-.2177.311-.2177.3732.0933.5909a7.3755,7.3755,0,0,1,2.8919,5.4107,2.8968,2.8968,0,0,1-.031.9018A1.2634,1.2634,0,0,1,16.24,12.87a2.6171,2.6171,0,0,1-1.8658-.6219,18.7241,18.7241,0,0,1-1.43-1.306,7.2652,7.2652,0,0,0-.9329-.7774,2.6128,2.6128,0,0,0-3.11.031,10.9571,10.9571,0,0,0-1.2749,1.12,12.3763,12.3763,0,0,1-.9329.8707,2.8278,2.8278,0,0,1-1.928.6841A1.4861,1.4861,0,0,1,3.5523,12.2793Z"/><path class="cls-3" d="M3.5523,12.2793a2.4959,2.4959,0,0,0,.9018.4664,2.5677,2.5677,0,0,0,2.2078-.653c.56-.4664,1.0883-.9951,1.617-1.4926A3.6,3.6,0,0,1,9.74,9.6983a2.7555,2.7555,0,0,1,2.5188.5908c.653.5287,1.2438,1.1506,1.8969,1.7414a2.5752,2.5752,0,0,0,2.3322.7463,1.8834,1.8834,0,0,0,.8707-.4975,2.8,2.8,0,0,1-.0933.4975,7.868,7.868,0,0,1-.56.84,5.802,5.802,0,0,1-2.0212,1.3061,10.68,10.68,0,0,1-2.7676.56,14.1828,14.1828,0,0,1-4.2912-.2177,6.1812,6.1812,0,0,1-3.1718-1.5237,3.58,3.58,0,0,1-.7774-1.0262A1.7807,1.7807,0,0,1,3.5523,12.2793Z"/><path class="cls-4" d="M3.6767,12.7457a4.9581,4.9581,0,0,1,.6219.7463A5.4265,5.4265,0,0,0,5.76,14.58a9.3833,9.3833,0,0,0,3.4517.84,13.6925,13.6925,0,0,0,4.5089-.311,6.01,6.01,0,0,0,2.923-1.5859,4.131,4.131,0,0,0,.4354-.5908c.0311-.0622.0622-.1555.1866-.1555a3.7164,3.7164,0,0,1-1.7414,2.3011,8.0838,8.0838,0,0,1-3.2029,1.0262,13.422,13.422,0,0,1-5.1-.28A5.5062,5.5062,0,0,1,4.423,14.2383,3.23,3.23,0,0,1,3.6767,12.7457Z"/><path class="cls-2" d="M11.7927,22.2922a2.7042,2.7042,0,0,1-.031-.7152V20.0222c0-.0622.031-.0622.0621-.0311.0622.0622.0311.1555.0622.2488a19.4275,19.4275,0,0,0,1.7725-1.8036,2.4243,2.4243,0,0,0,.6219-1.3371c0-.0311.0311-.0933.0311-.1244.1244-.0622.2177-.0933.3421-.1555.1555,0,.1555.1555.1866.2488a2.941,2.941,0,0,1,.0311,1.2749,7.71,7.71,0,0,1-.6842,2.1768,6.5131,6.5131,0,0,1-.6841,1.306.97.97,0,0,1-.2176.28.187.187,0,0,1-.1244.0311,2.3487,2.3487,0,0,0-1.2128.1554A.1412.1412,0,0,1,11.7927,22.2922Z"/><path class="cls-2" d="M9.15,20.52c0,.5908.0311,1.1816,0,1.7724a.1983.1983,0,0,1-.1866,0,2.1836,2.1836,0,0,0-1.1817-.1243.2433.2433,0,0,1-.2487-.0311,1.8381,1.8381,0,0,0-.1866-.4354,11.57,11.57,0,0,1-1.2128-3.0163,3.606,3.606,0,0,1-.0621-1.5237c.0311-.1244.0621-.28.1865-.3421.1244.0622.2177.0933.3421.1555a.2823.2823,0,0,1,.0933.2177,2.1564,2.1564,0,0,0,.4975,1.1194,18.6575,18.6575,0,0,0,1.71,1.8036A.7527.7527,0,0,1,9.15,20.52Z"/><path class="cls-4" d="M9.6471,21.4837v-1.43c0-.2176-.0933-.342-.3109-.3109a.5049.5049,0,0,1-.1555-.28A5.594,5.594,0,0,0,8.31,17.8144a.7356.7356,0,0,0-.4043-.3421c-.0622-.0311-.1244-.0311-.1244-.1554.4976.0622.9951.1865,1.4927.2176.1865,0,.1243.0933.0622.2177a1.1446,1.1446,0,0,0,.28,1.306,1.2382,1.2382,0,0,0,1.3372.2488,1.2247,1.2247,0,0,0,.653-1.5237c-.0933-.2488,0-.2488.1865-.2488.3732-.0311.7464-.0933,1.1506-.1554.0311.0932-.0311.1243-.0622.1865a5.1218,5.1218,0,0,0-1.0884,2.0213c-.031.0622-.031.1244-.0932.1555-.28-.0311-.3421.0311-.3421.3109,0,.4665,0,.9329-.0311,1.3994A1.3151,1.3151,0,0,1,9.6471,21.4837Z"/><path class="cls-3" d="M7.7813,17.348c.5909.2176.8085.7463,1.0884,1.2438a3.0441,3.0441,0,0,1,.4354,1.1506c-.1866.0933-.1555.28-.1555.4353V20.52a27.8071,27.8071,0,0,1-2.0524-2.2079A2.0894,2.0894,0,0,1,6.6,16.9748C7.0039,17.0992,7.3771,17.2236,7.7813,17.348Z"/><path class="cls-3" d="M11.6373,19.7735a3.7247,3.7247,0,0,1,.6219-1.4927,4.55,4.55,0,0,1,.653-.8706c.4664-.1244.964-.2488,1.3993-.4043a1.2776,1.2776,0,0,1-.2487.9951,9.1946,9.1946,0,0,1-1.5237,1.7725,8.0962,8.0962,0,0,0-.7153.7463c-.0932-.1555,0-.311-.0622-.4665A.3027.3027,0,0,0,11.6373,19.7735Z"/><path class="cls-5" d="M13.2543,22.0746a10.9022,10.9022,0,0,0,1.4615-3.4517,2.9805,2.9805,0,0,0-.0622-1.8036c.0311-.0311.0933-.0622.1244-.0933.3731-.1865.3731-.1865.5286.1866a3.1377,3.1377,0,0,1,.0622,1.928A10.912,10.912,0,0,1,13.97,22.0435c-.0622.0933-.1244.1555-.1866.2487C13.5652,22.2922,13.3786,22.2922,13.2543,22.0746Z"/><path class="cls-5" d="M6.2576,16.8193a4.041,4.041,0,0,0,.1866,2.7054,9.4715,9.4715,0,0,0,1.1195,2.3322.1645.1645,0,0,1-.0311.2488.32.32,0,0,1-.3732.2176,6.3163,6.3163,0,0,1-1.0572-1.8968,6.69,6.69,0,0,1-.6531-2.3322A2.46,2.46,0,0,1,5.6668,16.85c.1555-.3109.1555-.3109.4354-.1244C6.1643,16.7571,6.1954,16.7882,6.2576,16.8193Z"/><path class="cls-6" d="M14.28,22.4788a12.9019,12.9019,0,0,0,1.4616-3.2029c.0621-.1866.1243-.1244.2176-.0311a1.7719,1.7719,0,0,1,.4354,1.3994,3.2215,3.2215,0,0,1-.3421,1.1816,1.1117,1.1117,0,0,1-.8707.653A8.6989,8.6989,0,0,1,14.28,22.4788Z"/><path class="cls-6" d="M6.1643,22.4788a1.235,1.235,0,0,1-1.43-1.0261,2.317,2.317,0,0,1-.0933-1.6481,1.3014,1.3014,0,0,1,.3421-.56c.0933-.0933.1555-.1555.1866.0311a12.1994,12.1994,0,0,0,1.3682,3.0474c.0622.1244.0622.1555-.0933.1555Z"/><path class="cls-7" d="M16.737,7.6771a8.9733,8.9733,0,0,0-1.5859-1.8347c-.342-.28-.342-.311-.0311-.653a5.1532,5.1532,0,0,1,1.1817-.9951.4274.4274,0,0,1,.1555.2488,5.6084,5.6084,0,0,1,.342,1.7724,4.6837,4.6837,0,0,1,.0311.9329C16.8925,7.3661,16.8925,7.5527,16.737,7.6771Z"/><path class="cls-7" d="M4.61,4.2254A4.6351,4.6351,0,0,1,5.9778,5.4381c.0622.0933.0933.1555,0,.2488a8.3124,8.3124,0,0,0-1.7725,1.99.3158.3158,0,0,1-.1555-.311A9.0308,9.0308,0,0,1,4.3608,4.63.4854.4854,0,0,1,4.61,4.2254Z"/><path class="cls-8" d="M15.1822,4.4742a2.949,2.949,0,0,0-1.0572.6841.8568.8568,0,0,1-1.12.2176A6.1753,6.1753,0,0,0,9.74,4.91a5.937,5.937,0,0,0-2.3011.653c-.0933.0622-.1555.0311-.2488-.0311-.4042-.3109-.7774-.653-1.2127-.9329a.4134.4134,0,0,0-.2488-.0932c-.28-.2177-.5286-.4354-.84-.6531a1.6858,1.6858,0,0,1,.7463.28A8.981,8.981,0,0,1,7.035,5.1583a.3817.3817,0,0,0,.4976.0933,6.7991,6.7991,0,0,1,5.815,0,.377.377,0,0,0,.4664-.0622A6.8576,6.8576,0,0,1,15.68,3.9144c.0933-.0311.1554-.0622.2487-.0933.0311,0,.0311,0,.0933.0311C15.7109,4.07,15.4621,4.2876,15.1822,4.4742Z"/><path class="cls-6" d="M2.8371,16.7571a1.8093,1.8093,0,0,1,.1554-.4975,3.6287,3.6287,0,0,0,.9018,1.3993,2.9381,2.9381,0,0,0,.964.653c.2488.1244.2488.2488.0311.4043a1.7955,1.7955,0,0,0-.56.6219.3032.3032,0,0,1-.28-.1244,3.2135,3.2135,0,0,1-1.15-1.8346A1.0991,1.0991,0,0,1,2.8371,16.7571Z"/><path class="cls-9" d="M4.61,4.2254a7.5776,7.5776,0,0,0-.4664,3.11,1.3226,1.3226,0,0,0,.0622.3421c-.1244.2487-.2488.4975-.4043.7774A1.34,1.34,0,0,1,3.6767,7.77,7.608,7.608,0,0,1,3.9254,4.754c.0311-.1244.0933-.2487.1244-.3731C4.2053,3.9455,4.2053,3.9455,4.61,4.2254Z"/><path class="cls-9" d="M16.737,7.6771A8.3262,8.3262,0,0,0,16.5505,4.91a6.2668,6.2668,0,0,1-.2177-.7152l.0311-.0311c.342-.2177.342-.2177.4975.1555a6.2672,6.2672,0,0,1,.4354,2.27,9.2275,9.2275,0,0,1-.0933,1.617.7911.7911,0,0,1-.0622.2177C17.0169,8.1746,16.8925,7.9258,16.737,7.6771Z"/><path class="cls-10" d="M9.6471,21.4837a1.6616,1.6616,0,0,0,1.617,0c0,.28.0311.5287.0311.8085,0,.1555-.0311.1866-.1555.1866H9.7715c-.1244,0-.1866-.0311-.1555-.1555A7.576,7.576,0,0,0,9.6471,21.4837Z"/><path class="cls-4" d="M2.8371,16.7571a3.3165,3.3165,0,0,0,1.4615,2.581,2.3315,2.3315,0,0,0-.1555.4975c-.0311.1244-.0622.1555-.1555.0622A2.9677,2.9677,0,0,1,2.8371,16.7571Z"/><path class="cls-11" d="M10.2379,18.9339a.7291.7291,0,1,1,.622-1.3061A.82.82,0,0,1,10.2379,18.9339Z"/><path class="cls-12" d="M6.1022,16.1352c-.0311-.1866.031-.2177.1865-.1555a10.63,10.63,0,0,0,3.11.622c.311,0,.3421.031.311.4042-.0311.28-.2177.1244-.3421.1555-.031,0-.0932-.0311-.1243-.0311.0311-.0622.0622-.0622.1243-.0933A8.6885,8.6885,0,0,1,6.1022,16.1352Z"/><path class="cls-12" d="M11.6373,17.0992c-.4043.0933-.4354.0622-.4354-.311,0-.1865.0933-.2176.2488-.2176a10.3835,10.3835,0,0,0,2.3944-.3732,8.03,8.03,0,0,0,.8085-.2488c.0933-.0311.1866-.0622.1555.0933a1.4458,1.4458,0,0,1-.653.4043,9.9318,9.9318,0,0,1-2.4877.56c-.0311,0-.0933-.0311-.0622.0311A.1086.1086,0,0,0,11.6373,17.0992Z"/><path class="cls-13" d="M7.7192,22.0746a1.9379,1.9379,0,0,1,1.43.2176c0,.28-.0933.4976-.3732.56a3.7894,3.7894,0,0,1-.84,0h0c0-.1244.1244-.1244.1866-.1244a3.5479,3.5479,0,0,1-.3421-.3421C7.7192,22.2922,7.657,22.199,7.7192,22.0746Z"/><path class="cls-14" d="M11.7927,22.2922a1.8385,1.8385,0,0,1,1.3994-.2176c.1244.0933.0311.1555,0,.2487a1.78,1.78,0,0,1-.4665.4976c-.1555.1244-.342.0311-.5286.0311C11.9171,22.79,11.7927,22.6343,11.7927,22.2922Z"/><path class="cls-15" d="M11.6373,17.0992c-.1244-.0311-.3421.0622-.3421-.0622,0-.1555.2177-.0622.311-.0933a12.6091,12.6091,0,0,0,2.3944-.4975c.28-.0933.5286-.2488.8085-.3732.0311.1555-.0933.1866-.2177.2488a7.6824,7.6824,0,0,1-2.4566.7152A2.722,2.722,0,0,1,11.6373,17.0992Z"/><path class="cls-16" d="M6.1022,16.1352c.0932-.0622.1554,0,.2487.0622a7.1545,7.1545,0,0,0,2.7676.7152,2.4,2.4,0,0,1,.4664.0622c.0622,0,.1244,0,.0933.0933,0,.0622-.0622.0622-.1244.0622h-.28a7.6231,7.6231,0,0,1-2.9853-.8085C6.1954,16.26,6.1022,16.2285,6.1022,16.1352Z"/><path class="cls-17" d="M12.1659,22.852c.5286.0622.7152-.3732.9951-.6841v-.0933h.0933a1.8658,1.8658,0,0,1,.4975.2487A1.4164,1.4164,0,0,1,12.1659,22.852Z"/><path class="cls-18" d="M7.7192,22.0746c.0932.3109.3731.4353.56.6841-.0933.0933-.28-.0311-.3732.0933a1.12,1.12,0,0,1-.7774-.5287c.1244-.0622.2488-.1554.3732-.2176A.4611.4611,0,0,0,7.7192,22.0746Z"/><path class="cls-19" d="M10.2379,18.9339c.6531-.28.7463-.4665.5909-1.3372a.7346.7346,0,0,1-.5909,1.3372Z"/><path class="cls-20" d="M10.4867,17.037c-.1555,0-.311.0933-.311-.1866,0-.2487.1244-.2177.28-.2177s.311-.0621.311.2177S10.58,17.0059,10.4867,17.037Z"/><path class="cls-18" d="M7.9368,22.852a7.5613,7.5613,0,0,1,.84,0A1.9122,1.9122,0,0,1,7.9368,22.852Z"/><path class="cls-1" d="M5.7912,9.8849a1.0026,1.0026,0,0,1,.964-1.0262,1.0367,1.0367,0,0,1,1.1194.9018.6123.6123,0,0,1-.3731.7152,1.8226,1.8226,0,0,1-1.2128.1555A.671.671,0,0,1,5.7912,9.8849Z"/><path class="cls-1" d="M14.2493,10.6623a2.4476,2.4476,0,0,1-.6219-.1244A.7466.7466,0,0,1,13.13,9.4806a1.05,1.05,0,0,1,1.1816-.653,1.0378,1.0378,0,0,1,.84,1.0573C15.1511,10.4135,14.84,10.6623,14.2493,10.6623Z"/><path class="cls-21" d="M8.4033,7.77a.6228.6228,0,0,1-.7463.5909A.1143.1143,0,0,1,7.5637,8.33c-.4665-.0622-.7152-.28-.6841-.6219a.8587.8587,0,0,1,.9017-.6842A.72.72,0,0,1,8.4033,7.77Z"/><path class="cls-21" d="M12.5391,7.77a.7141.7141,0,0,1,.653-.7152.853.853,0,0,1,.8707.7152.4706.4706,0,0,1-.2177.4354,1.0947,1.0947,0,0,1-1.0262.0933A.6109.6109,0,0,1,12.5391,7.77Z"/><path class="cls-1" d="M9.274,10.6934a1.4067,1.4067,0,0,1,1.43-.4976.8274.8274,0,0,1,.3731.0933.716.716,0,0,1,.5909.84,1.0421,1.0421,0,0,1-.56.8085c-.2176.1244-.2176.1244-.0311.3421.4043.2177.622.1866.9018-.1555a4.6161,4.6161,0,0,0,.2488-.4042.2018.2018,0,0,1,.311-.0933.2155.2155,0,0,1,.0932.3109,1.584,1.584,0,0,1-.6841.8085.3863.3863,0,0,0-.1866.2488,1.762,1.762,0,0,1-.56,1.0884,1.0632,1.0632,0,0,1-1.5548.0311,1.93,1.93,0,0,1-.56-1.12.4739.4739,0,0,0-.1866-.311,1.6958,1.6958,0,0,1-.6219-.7774.2155.2155,0,0,1,.0933-.3109.2079.2079,0,0,1,.3109.1244,1.7648,1.7648,0,0,0,.2488.4042.6163.6163,0,0,0,.964.0622c.1244-.1555,0-.1866-.0933-.28A1.05,1.05,0,0,1,9.274,10.6934Z"/><path class="cls-22" d="M9.274,10.6934c-.0622.7152.342,1.0573.9328,1.306a.5587.5587,0,0,1-.28.1866A1.1316,1.1316,0,0,1,9.274,10.6934Z"/><path class="cls-23" d="M11.0775,12.2482a1.1043,1.1043,0,0,1-.3731-.2488,1.3921,1.3921,0,0,0,.9951-.9018.5231.5231,0,0,1-.0933.5909,1.5614,1.5614,0,0,1-.4665.4353C11.0775,12.1549,11.0153,12.1549,11.0775,12.2482Z"/><path class="cls-24" d="M6.9728,9.2008c.1866.0311.311.0933.311.3109a.32.32,0,0,1-.311.3421.3451.3451,0,0,1-.342-.3421A.3032.3032,0,0,1,6.9728,9.2008Z"/><path class="cls-25" d="M14.3115,9.5739a.3068.3068,0,0,1-.3109.28.3451.3451,0,0,1-.3421-.3421.339.339,0,0,1,.311-.342A.3631.3631,0,0,1,14.3115,9.5739Z"/><path class="cls-26" d="M10.4556,11.0354a1.7241,1.7241,0,0,1-.56-.0621c-.2488-.1244-.2488-.311-.0311-.4665a1.4259,1.4259,0,0,1,1.1816.0311c.1866.1244.1866.311-.0311.4043A.6856.6856,0,0,1,10.4556,11.0354Z"/><path class="cls-27" d="M11.0153,13.5542a.6062.6062,0,0,1-1.1194,0,.2555.2555,0,0,1,.1555-.1555A1.0313,1.0313,0,0,1,11.0153,13.5542Z"/><path class="cls-28" d="M11.0153,13.5542a1.5447,1.5447,0,0,0-1.1194,0c-.1244-.0933-.1555-.1865.0311-.2176a1.7255,1.7255,0,0,1,1.1194,0C11.233,13.3987,11.0775,13.492,11.0153,13.5542Z"/><path class="cls-29" d="M64.3141,10.0093a13.7883,13.7883,0,0,1,2.7676.0311,3.6419,3.6419,0,0,1,2.3011,1.0883,3.53,3.53,0,0,1,.84,1.8658,10.2692,10.2692,0,0,1-.4043,5.0376,4.7345,4.7345,0,0,1-4.4156,3.3273,10.985,10.985,0,0,1-2.8609-.0933,2.5921,2.5921,0,0,1-.4664-.1244,1.2172,1.2172,0,0,1-.84-1.2439c0-.9328.0933-1.8657.1555-2.7986.1555-2.2078.4042-4.4157.4664-6.6546,0-.3109.0622-.3731.3732-.3731A16.155,16.155,0,0,0,64.3141,10.0093Zm3.1407,4.7888a4.1425,4.1425,0,0,0-.1865-1.3683,1.412,1.412,0,0,0-1.12-.995,5.7468,5.7468,0,0,0-1.4615,0c-.1555,0-.2177.0622-.2177.2487-.0933,1.99-.2488,4.0114-.4042,6.0016,0,.1866.0311.2177.1865.2177h.1555a2.3975,2.3975,0,0,0,2.7987-1.8658A7.8052,7.8052,0,0,0,67.4548,14.7981Z"/><path class="cls-29" d="M30.3571,15.42c.0311.0622.0933.0622.1555.0933A2.16,2.16,0,0,1,31.9119,17.41a4.02,4.02,0,0,1-.0621,1.3682,2.9591,2.9591,0,0,1-2.0524,2.2078,8.7013,8.7013,0,0,1-4.6333.2488,1.4578,1.4578,0,0,1-1.306-1.6481c0-1.1195.1554-2.2389.2176-3.3584.1244-1.8969.3421-3.7937.4043-5.6906,0-.4042.0311-.4353.4353-.4353a26.5255,26.5255,0,0,1,3.5139-.0933,5.9836,5.9836,0,0,1,1.9279.4353A2.3934,2.3934,0,0,1,31.943,12.839a3.7169,3.7169,0,0,1-.2176,1.3061A2.3212,2.3212,0,0,1,30.3571,15.42ZM27.714,19.3692a1.3331,1.3331,0,0,0,1.43-.84,1.8491,1.8491,0,0,0,.0311-1.0884,1.0736,1.0736,0,0,0-.8085-.8085,3.2321,3.2321,0,0,0-1.3371,0c-.1555.0311-.1866.0933-.1866.2177-.0311.5287-.0933,1.0884-.0933,1.617,0,.2488-.1866.56.0622.7463a1.66,1.66,0,0,0,.7774.1555Zm.2176-7.2143a4.64,4.64,0,0,0-.653.0622c-.0933,0-.1555.0311-.1555.1555-.0311.6219-.0621,1.2438-.0932,1.8968,0,.0933.0311.1555.1243.1555a2.7883,2.7883,0,0,0,1.4305,0,1.04,1.04,0,0,0,.7774-1.0572,1.0278,1.0278,0,0,0-.7463-1.0884A1.7728,1.7728,0,0,0,27.9316,12.1549Z"/><path class="cls-29" d="M86.5168,13.5853a2.3044,2.3044,0,0,0,.0311-.653c0-.2177.0933-.3421.342-.311.3421.0311.6841,0,1.0262.0311a1.13,1.13,0,0,1,1.12,1.1817,12.7345,12.7345,0,0,1-.0622,2.1767c-.0933,1.5859-.2177,3.1718-.4665,4.7577a7.6208,7.6208,0,0,1-.2487,1.1506,2.9922,2.9922,0,0,1-1.71,1.959,6.1822,6.1822,0,0,1-4.4779.1244,2.0223,2.0223,0,0,1-.84-.5286,1.1968,1.1968,0,0,1-.4042-1.306,1.2883,1.2883,0,0,1,1.1194-.8085.61.61,0,0,1,.7152.3109,1.7056,1.7056,0,0,0,1.8036.6841,1.52,1.52,0,0,0,1.3061-1.2127,4.363,4.363,0,0,0,.1865-1.5548c-.0932,0-.0932.0622-.1243.1244a2.4923,2.4923,0,0,1-2.3633,1.1194,2.5572,2.5572,0,0,1-2.6121-2.3322,6.4252,6.4252,0,0,1,.5286-4.1669A3.36,3.36,0,0,1,85.18,12.59a1.6642,1.6642,0,0,1,1.2128.9639c0,.0311.0311.0622.0622.0933C86.4857,13.5853,86.4857,13.5853,86.5168,13.5853Zm-.1555,2.6432a2.9949,2.9949,0,0,0-.1555-.9951.97.97,0,0,0-.9329-.6841,1.3389,1.3389,0,0,0-1.3371.7774,4.0117,4.0117,0,0,0-.311,2.55.8953.8953,0,0,0,.6842.7463,1.4916,1.4916,0,0,0,1.7413-.7774A3.3462,3.3462,0,0,0,86.3613,16.2285Z"/><path class="cls-29" d="M56.6023,19.5558a2.8584,2.8584,0,0,1-1.0573.964,3.1267,3.1267,0,0,1-2.83-.0622,2.3368,2.3368,0,0,1-1.12-1.99,12.6526,12.6526,0,0,1,.0622-2.4255c.0622-.9329.1555-1.8657.2177-2.7986.0311-.4665.1554-.5909.6219-.5909a6.7627,6.7627,0,0,1,.7774.0311A1.1311,1.1311,0,0,1,54.4566,13.99c0,.6841-.0932,1.3682-.1554,2.0212a7.9238,7.9238,0,0,0-.1244,1.71.9961.9961,0,0,0,1.6481.7463,2.47,2.47,0,0,0,.8085-1.2127,9.3223,9.3223,0,0,0,.342-2.27c.0622-.6531.0933-1.275.1555-1.928.0311-.3421.1244-.4354.4665-.4354a3.7993,3.7993,0,0,1,1.1816.0933,1.1086,1.1086,0,0,1,.9018,1.1506c0,1.1505-.1244,2.27-.2177,3.4206-.0622,1.2127-.1865,2.3944-.28,3.6071A3.449,3.449,0,0,1,55.98,24.2824a7.0064,7.0064,0,0,1-3.2029-.28,3.12,3.12,0,0,1-1.12-.653,1.0728,1.0728,0,0,1,.4042-1.8658,1.547,1.547,0,0,1,.4043-.0932c.4975-.0933.5286-.0933.8085.342a1.4156,1.4156,0,0,0,1.2438.6219,1.6019,1.6019,0,0,0,1.928-1.3371A3.915,3.915,0,0,0,56.6023,19.5558Z"/><path class="cls-29" d="M45.0034,13.7719a.8508.8508,0,0,1,.1244-.1555,2.45,2.45,0,0,1,2.581-1.1194A2.5149,2.5149,0,0,1,50.01,14.5182a6.7983,6.7983,0,0,1-.3421,4.5711,3.8229,3.8229,0,0,1-3.3272,2.3012,5.713,5.713,0,0,1-1.928-.0933,2.7515,2.7515,0,0,1-2.3011-2.581,21.4959,21.4959,0,0,1,.0622-2.83c.1244-1.99.342-3.9492.4042-5.9393,0-.311.0311-.3421.3732-.3421a6.7346,6.7346,0,0,1,1.1194.0311,1.18,1.18,0,0,1,1.0884,1.275c0,.8707-.0933,1.71-.1555,2.5809A.4288.4288,0,0,1,45.0034,13.7719Zm-.342,3.4206a4.1225,4.1225,0,0,0,.1865,1.3993.9955.9955,0,0,0,1.0884.7152,1.2422,1.2422,0,0,0,1.0884-.7152,4.5671,4.5671,0,0,0,.342-3.2651.9426.9426,0,0,0-1.0572-.7774,1.3073,1.3073,0,0,0-1.275.8707A4.4251,4.4251,0,0,0,44.6614,17.1925Z"/><path class="cls-29" d="M37.54,20.0844a3.6443,3.6443,0,0,1-.4665.4976,3.0612,3.0612,0,0,1-3.2962.5908,1.866,1.866,0,0,1-1.1194-1.9591,2.6623,2.6623,0,0,1,1.9279-2.4255,8.0525,8.0525,0,0,1,2.8609-.5286c.1865,0,.28-.0622.28-.2488a3.2584,3.2584,0,0,0-.0311-.7774.6924.6924,0,0,0-.5908-.5908,1.0562,1.0562,0,0,0-1.3993.8085c-.0311.0622-.0311.1244-.0622.1866-.1244.4664-.1555.4975-.6219.4664-.1555,0-.311-.0311-.4665-.0311a1.121,1.121,0,0,1-1.0262-1.4615,2.2436,2.2436,0,0,1,1.0573-1.5237,4.1761,4.1761,0,0,1,1.8347-.5286,5.8574,5.8574,0,0,1,2.2078.1554,2.3286,2.3286,0,0,1,1.8036,2.27,19.0648,19.0648,0,0,1-.1555,2.3011c-.0311.3731-.0933.7774-.0933,1.1505a.7081.7081,0,0,0,.6219.8085c.28.0622.311.1866.311.4354a1.7938,1.7938,0,0,1-1.3371,1.7414,2.1534,2.1534,0,0,1-1.0884,0,1.4006,1.4006,0,0,1-1.0262-.964A1.0468,1.0468,0,0,1,37.54,20.0844Zm-.28-2.55a3.444,3.444,0,0,0-1.12.2488.9864.9864,0,0,0-.5908.4664.6569.6569,0,0,0-.0311.7464.6317.6317,0,0,0,.6219.3109,1.2769,1.2769,0,0,0,.8707-.342,1.84,1.84,0,0,0,.56-1.1506C37.6025,17.5345,37.5714,17.5345,37.2605,17.5345Z"/><path class="cls-29" d="M71.3108,17.5345a6.1212,6.1212,0,0,1,.4042-2.4255,3.8979,3.8979,0,0,1,3.1407-2.5809,6.2032,6.2032,0,0,1,2.3944,0,2.8517,2.8517,0,0,1,2.4255,2.6431,6.5783,6.5783,0,0,1-.4975,3.7005,4.0736,4.0736,0,0,1-3.4828,2.4566,5.8564,5.8564,0,0,1-1.8036-.0622,2.9691,2.9691,0,0,1-2.4877-2.55A7.5771,7.5771,0,0,1,71.3108,17.5345Zm5.7527-1.1816a3.7983,3.7983,0,0,0-.1243-1.0573,1.0646,1.0646,0,0,0-.9951-.7463,1.5164,1.5164,0,0,0-1.617.9951,4.7126,4.7126,0,0,0-.311,1.8658,3.01,3.01,0,0,0,.2488,1.2749,1.0561,1.0561,0,0,0,.9951.6219,1.4819,1.4819,0,0,0,1.3682-.964A5.1079,5.1079,0,0,0,77.0635,16.3529Z"/><path class="cls-29" d="M94.8505,12.4659a4.5755,4.5755,0,0,1,1.4927.1865,2.1158,2.1158,0,0,1,1.5237,2.3944,2.511,2.511,0,0,1-1.4927,2.1146,7.3938,7.3938,0,0,1-2.7364.6841c-.1866,0-.3421.0311-.5286.0311-.1244,0-.1866.0311-.1555.1866a1.45,1.45,0,0,0,1.8346,1.3682,1.2858,1.2858,0,0,0,.7463-.5286c.2488-.3421.3732-.3732.7775-.2488a1.1217,1.1217,0,0,1,.4975,1.8969,2.84,2.84,0,0,1-1.5859.7774,5.1564,5.1564,0,0,1-2.83-.1555,2.9848,2.9848,0,0,1-2.0523-2.3011,6.2058,6.2058,0,0,1,.7774-4.509,4.0777,4.0777,0,0,1,3.5761-1.8968Zm-.4664,2.0834a1.05,1.05,0,0,0-.9329.56,3.81,3.81,0,0,0-.4353,1.3061c-.0311.1555.0311.1555.1555.1555.1865-.0311.342-.0311.5286-.0622a2.0821,2.0821,0,0,0,1.2438-.56.8535.8535,0,0,0,.1555-.9639A.7582.7582,0,0,0,94.3841,14.5493Z"/><path class="cls-30" d="M65.3092,9.17a13.7883,13.7883,0,0,1,2.7676.0311,3.6424,3.6424,0,0,1,2.3011,1.0883,3.53,3.53,0,0,1,.84,1.8658,10.2716,10.2716,0,0,1-.4043,5.0376A4.7345,4.7345,0,0,1,66.3976,20.52a10.985,10.985,0,0,1-2.8609-.0933,2.59,2.59,0,0,1-.4664-.1244,1.217,1.217,0,0,1-.84-1.2439c0-.9328.0933-1.8657.1555-2.7986.1554-2.2078.4042-4.4157.4664-6.6546,0-.3109.0622-.3731.3732-.3731C63.8788,9.2319,64.5629,9.2008,65.3092,9.17ZM68.45,13.9585a4.14,4.14,0,0,0-.1866-1.3682,1.4116,1.4116,0,0,0-1.1194-.9951,5.7468,5.7468,0,0,0-1.4615,0c-.1555,0-.2177.0622-.2177.2487-.0933,1.99-.2488,4.0114-.4043,6.0016,0,.1866.0311.2177.1866.2177h.1555a2.3973,2.3973,0,0,0,2.7986-1.8658A7.9389,7.9389,0,0,0,68.45,13.9585Z"/><path class="cls-30" d="M31.3522,14.5493c.0311.0622.0933.0622.1555.0933A2.16,2.16,0,0,1,32.907,16.54a4.0178,4.0178,0,0,1-.0622,1.3682,2.9587,2.9587,0,0,1-2.0523,2.2078,8.7,8.7,0,0,1-4.6333.2488,1.4578,1.4578,0,0,1-1.3061-1.6481c0-1.12.1555-2.2389.2177-3.3584.1244-1.8969.3421-3.7937.4042-5.6906,0-.4042.0311-.4353.4354-.4353a26.5255,26.5255,0,0,1,3.5139-.0933,5.9836,5.9836,0,0,1,1.9279.4353,2.3934,2.3934,0,0,1,1.5859,2.3944,3.7192,3.7192,0,0,1-.2176,1.3061A2.2363,2.2363,0,0,1,31.3522,14.5493ZM28.74,18.4985a1.333,1.333,0,0,0,1.43-.84,1.85,1.85,0,0,0,.0311-1.0883,1.0733,1.0733,0,0,0-.8085-.8085,3.2292,3.2292,0,0,0-1.3372,0c-.1555.0311-.1866.0932-.1866.2176-.031.5287-.0932,1.0884-.0932,1.617,0,.2488-.1866.56.0622.7463a1.6594,1.6594,0,0,0,.7774.1555Zm.2177-7.1832a4.6384,4.6384,0,0,0-.653.0622c-.0933,0-.1555.0311-.1555.1555-.0311.6219-.0622,1.2438-.0933,1.8968,0,.0933.0311.1555.1244.1555a2.7879,2.7879,0,0,0,1.43,0,1.04,1.04,0,0,0,.7774-1.0572,1.0277,1.0277,0,0,0-.7463-1.0884A1.081,1.081,0,0,0,28.9578,11.3153Z"/><path class="cls-30" d="M87.5118,12.7146a2.3044,2.3044,0,0,0,.0311-.653c0-.2177.0933-.342.3421-.3109.3421.0311.6841,0,1.0262.0311a1.13,1.13,0,0,1,1.1194,1.1816,12.7345,12.7345,0,0,1-.0622,2.1767c-.0932,1.5859-.2176,3.1718-.4664,4.7577a7.609,7.609,0,0,1-.2488,1.1506,2.9923,2.9923,0,0,1-1.71,1.9591,6.1824,6.1824,0,0,1-4.4778.1243,2.0207,2.0207,0,0,1-.84-.5286,1.1968,1.1968,0,0,1-.4042-1.306,1.2882,1.2882,0,0,1,1.1194-.8085.61.61,0,0,1,.7152.3109,1.7056,1.7056,0,0,0,1.8036.6841,1.5194,1.5194,0,0,0,1.306-1.2127,4.3608,4.3608,0,0,0,.1866-1.5548c-.0933,0-.0933.0622-.1244.1244A2.4921,2.4921,0,0,1,84.4644,19.96a2.5573,2.5573,0,0,1-2.6121-2.3322,6.4258,6.4258,0,0,1,.5287-4.1669A3.36,3.36,0,0,1,86.1747,11.72a1.6644,1.6644,0,0,1,1.2128.9639c0,.0311.0311.0622.0622.0933C87.4808,12.7146,87.5118,12.7146,87.5118,12.7146Zm-.1243,2.6432a2.9949,2.9949,0,0,0-.1555-.9951.9706.9706,0,0,0-.9329-.6841,1.3388,1.3388,0,0,0-1.3371.7774,4.011,4.011,0,0,0-.311,2.55.8952.8952,0,0,0,.6841.7463,1.4917,1.4917,0,0,0,1.7414-.7774A3.3462,3.3462,0,0,0,87.3875,15.3578Z"/><path class="cls-30" d="M57.6285,18.6851a2.8592,2.8592,0,0,1-1.0573.964,3.1269,3.1269,0,0,1-2.83-.0622,2.3367,2.3367,0,0,1-1.1194-1.99,12.6526,12.6526,0,0,1,.0622-2.4255c.0622-.9329.1554-1.8657.2176-2.7986.0311-.4665.1555-.5909.622-.5909a6.7635,6.7635,0,0,1,.7774.0311,1.1311,1.1311,0,0,1,1.1816,1.3061c0,.6841-.0933,1.3682-.1555,2.0212a7.9237,7.9237,0,0,0-.1243,1.71.9961.9961,0,0,0,1.6481.7463A2.47,2.47,0,0,0,57.66,16.384a9.3272,9.3272,0,0,0,.342-2.27c.0622-.6531.0933-1.275.1555-1.928.0311-.3421.1244-.4353.4664-.4353a3.8028,3.8028,0,0,1,1.1817.0932,1.1086,1.1086,0,0,1,.9018,1.1506c0,1.1506-.1244,2.27-.2177,3.4206-.0622,1.2127-.1866,2.3944-.28,3.6071a3.4489,3.4489,0,0,1-3.2029,3.3895,7.0067,7.0067,0,0,1-3.2029-.28,3.12,3.12,0,0,1-1.1194-.653,1.0727,1.0727,0,0,1,.4042-1.8657,1.543,1.543,0,0,1,.4043-.0933c.4975-.0933.5286-.0933.8085.342a1.4155,1.4155,0,0,0,1.2438.6219,1.6019,1.6019,0,0,0,1.928-1.3371A4.589,4.589,0,0,0,57.6285,18.6851Z"/><path class="cls-30" d="M46.03,12.9012a.8508.8508,0,0,1,.1244-.1555,2.45,2.45,0,0,1,2.581-1.1194,2.515,2.515,0,0,1,2.3011,2.0212,6.7993,6.7993,0,0,1-.3421,4.5712A3.8231,3.8231,0,0,1,47.3667,20.52a5.7125,5.7125,0,0,1-1.9279-.0933,2.7513,2.7513,0,0,1-2.3011-2.581,21.5112,21.5112,0,0,1,.0621-2.83c.1244-1.99.3421-3.9493.4043-5.9394,0-.311.0311-.3421.3731-.3421a6.7355,6.7355,0,0,1,1.1195.0311,1.18,1.18,0,0,1,1.0884,1.275c0,.8707-.0933,1.71-.1555,2.5809Zm-.3421,3.4517a4.12,4.12,0,0,0,.1866,1.3993.9955.9955,0,0,0,1.0884.7152,1.2421,1.2421,0,0,0,1.0883-.7152,4.5666,4.5666,0,0,0,.3421-3.2651.9427.9427,0,0,0-1.0573-.7774,1.3073,1.3073,0,0,0-1.2749.8707A3.8683,3.8683,0,0,0,45.6875,16.3529Z"/><path class="cls-30" d="M38.5354,19.2448a3.6439,3.6439,0,0,1-.4664.4976,3.061,3.061,0,0,1-3.2962.5908,1.8661,1.8661,0,0,1-1.1195-1.9591,2.6624,2.6624,0,0,1,1.928-2.4255,8.0524,8.0524,0,0,1,2.8608-.5286c.1866,0,.28-.0622.28-.2488a3.2584,3.2584,0,0,0-.0311-.7774A.6925.6925,0,0,0,38.1,13.803a1.0561,1.0561,0,0,0-1.3993.8085c-.0311.0622-.0311.1244-.0622.1866-.1244.4664-.1555.4975-.622.4664-.1554,0-.3109-.0311-.4664-.0311a1.1209,1.1209,0,0,1-1.0262-1.4615,2.2436,2.2436,0,0,1,1.0573-1.5237A4.1757,4.1757,0,0,1,37.416,11.72a5.8574,5.8574,0,0,1,2.2078.1554,2.3286,2.3286,0,0,1,1.8036,2.27,19.0648,19.0648,0,0,1-.1555,2.3011c-.0311.3731-.0933.7774-.0933,1.15a.7081.7081,0,0,0,.6219.8085c.28.0622.311.1866.311.4354a1.7938,1.7938,0,0,1-1.3372,1.7414,2.153,2.153,0,0,1-1.0883,0,1.4006,1.4006,0,0,1-1.0262-.964A2.6116,2.6116,0,0,1,38.5354,19.2448Zm-.28-2.55a3.444,3.444,0,0,0-1.12.2488.9859.9859,0,0,0-.5908.4665.6567.6567,0,0,0-.0311.7463.6316.6316,0,0,0,.6219.3109,1.2769,1.2769,0,0,0,.8707-.342,1.84,1.84,0,0,0,.56-1.1506C38.5976,16.6949,38.5976,16.6638,38.2556,16.6949Z"/><path class="cls-30" d="M72.3369,16.6949a6.1215,6.1215,0,0,1,.4043-2.4255,3.8979,3.8979,0,0,1,3.1407-2.5809,6.2032,6.2032,0,0,1,2.3944,0,2.8517,2.8517,0,0,1,2.4255,2.6431,6.5783,6.5783,0,0,1-.4975,3.7005,4.0737,4.0737,0,0,1-3.4828,2.4566,5.8563,5.8563,0,0,1-1.8036-.0622,2.9691,2.9691,0,0,1-2.4877-2.55A5.3218,5.3218,0,0,1,72.3369,16.6949Zm5.7217-1.1816a3.7945,3.7945,0,0,0-.1244-1.0573,1.0644,1.0644,0,0,0-.995-.7463,1.5164,1.5164,0,0,0-1.617.9951,4.7126,4.7126,0,0,0-.311,1.8658,3.01,3.01,0,0,0,.2488,1.2749,1.0559,1.0559,0,0,0,.995.6219,1.4819,1.4819,0,0,0,1.3683-.964A5.11,5.11,0,0,0,78.0586,15.5133Z"/><path class="cls-30" d="M95.8767,11.5952a4.5721,4.5721,0,0,1,1.4926.1866,2.1155,2.1155,0,0,1,1.5237,2.3944A2.5109,2.5109,0,0,1,97.4,16.2907a7.3943,7.3943,0,0,1-2.7364.6841c-.1866,0-.3421.0311-.5287.0311-.1244,0-.1866.0311-.1555.1866a1.45,1.45,0,0,0,1.8347,1.3682,1.2861,1.2861,0,0,0,.7463-.5286c.2488-.3421.3732-.3732.7774-.2488a1.1217,1.1217,0,0,1,.4976,1.8969,2.84,2.84,0,0,1-1.5859.7774,5.1564,5.1564,0,0,1-2.83-.1555,2.9844,2.9844,0,0,1-2.0523-2.3011,6.2058,6.2058,0,0,1,.7774-4.509,4.0776,4.0776,0,0,1,3.576-1.8968ZM95.41,13.71a1.0494,1.0494,0,0,0-.9329.56,3.81,3.81,0,0,0-.4354,1.3061c-.0311.1555.0311.1555.1555.1555.1866-.0311.3421-.0311.5287-.0622a2.0823,2.0823,0,0,0,1.2438-.56.8535.8535,0,0,0,.1555-.9639A.7391.7391,0,0,0,95.41,13.71Z"/><path class="cls-31" d="M64.3141,10.0093a13.7883,13.7883,0,0,1,2.7676.0311,3.6419,3.6419,0,0,1,2.3011,1.0883,3.53,3.53,0,0,1,.84,1.8658,10.2692,10.2692,0,0,1-.4043,5.0376,4.7345,4.7345,0,0,1-4.4156,3.3273,10.985,10.985,0,0,1-2.8609-.0933,2.5921,2.5921,0,0,1-.4664-.1244,1.2172,1.2172,0,0,1-.84-1.2439c0-.9328.0933-1.8657.1555-2.7986.1555-2.2078.4042-4.4157.4664-6.6546,0-.3109.0622-.3731.3732-.3731A16.155,16.155,0,0,0,64.3141,10.0093Zm3.1407,4.7888a4.1425,4.1425,0,0,0-.1865-1.3683,1.412,1.412,0,0,0-1.12-.995,5.7468,5.7468,0,0,0-1.4615,0c-.1555,0-.2177.0622-.2177.2487-.0933,1.99-.2488,4.0114-.4042,6.0016,0,.1866.0311.2177.1865.2177h.1555a2.3975,2.3975,0,0,0,2.7987-1.8658A7.8052,7.8052,0,0,0,67.4548,14.7981Z"/><path class="cls-31" d="M30.3571,15.42c.0311.0622.0933.0622.1555.0933A2.16,2.16,0,0,1,31.9119,17.41a4.02,4.02,0,0,1-.0621,1.3682,2.9591,2.9591,0,0,1-2.0524,2.2078,8.7013,8.7013,0,0,1-4.6333.2488,1.4578,1.4578,0,0,1-1.306-1.6481c0-1.1195.1554-2.2389.2176-3.3584.1244-1.8969.3421-3.7937.4043-5.6906,0-.4042.0311-.4353.4353-.4353a26.5255,26.5255,0,0,1,3.5139-.0933,5.9836,5.9836,0,0,1,1.9279.4353A2.3934,2.3934,0,0,1,31.943,12.839a3.7169,3.7169,0,0,1-.2176,1.3061A2.3212,2.3212,0,0,1,30.3571,15.42ZM27.714,19.3692a1.3331,1.3331,0,0,0,1.43-.84,1.8491,1.8491,0,0,0,.0311-1.0884,1.0736,1.0736,0,0,0-.8085-.8085,3.2321,3.2321,0,0,0-1.3371,0c-.1555.0311-.1866.0933-.1866.2177-.0311.5287-.0933,1.0884-.0933,1.617,0,.2488-.1866.56.0622.7463a1.66,1.66,0,0,0,.7774.1555Zm.2176-7.2143a4.64,4.64,0,0,0-.653.0622c-.0933,0-.1555.0311-.1555.1555-.0311.6219-.0621,1.2438-.0932,1.8968,0,.0933.0311.1555.1243.1555a2.7883,2.7883,0,0,0,1.4305,0,1.04,1.04,0,0,0,.7774-1.0572,1.0278,1.0278,0,0,0-.7463-1.0884A1.7728,1.7728,0,0,0,27.9316,12.1549Z"/><path class="cls-31" d="M86.5168,13.5853a2.3044,2.3044,0,0,0,.0311-.653c0-.2177.0933-.3421.342-.311.3421.0311.6841,0,1.0262.0311a1.13,1.13,0,0,1,1.12,1.1817,12.7345,12.7345,0,0,1-.0622,2.1767c-.0933,1.5859-.2177,3.1718-.4665,4.7577a7.6208,7.6208,0,0,1-.2487,1.1506,2.9922,2.9922,0,0,1-1.71,1.959,6.1822,6.1822,0,0,1-4.4779.1244,2.0223,2.0223,0,0,1-.84-.5286,1.1968,1.1968,0,0,1-.4042-1.306,1.2883,1.2883,0,0,1,1.1194-.8085.61.61,0,0,1,.7152.3109,1.7056,1.7056,0,0,0,1.8036.6841,1.52,1.52,0,0,0,1.3061-1.2127,4.363,4.363,0,0,0,.1865-1.5548c-.0932,0-.0932.0622-.1243.1244a2.4923,2.4923,0,0,1-2.3633,1.1194,2.5572,2.5572,0,0,1-2.6121-2.3322,6.4252,6.4252,0,0,1,.5286-4.1669A3.36,3.36,0,0,1,85.18,12.59a1.6642,1.6642,0,0,1,1.2128.9639c0,.0311.0311.0622.0622.0933C86.4857,13.5853,86.4857,13.5853,86.5168,13.5853Zm-.1555,2.6432a2.9949,2.9949,0,0,0-.1555-.9951.97.97,0,0,0-.9329-.6841,1.3389,1.3389,0,0,0-1.3371.7774,4.0117,4.0117,0,0,0-.311,2.55.8953.8953,0,0,0,.6842.7463,1.4916,1.4916,0,0,0,1.7413-.7774A3.3462,3.3462,0,0,0,86.3613,16.2285Z"/><path class="cls-31" d="M56.6023,19.5558a2.8584,2.8584,0,0,1-1.0573.964,3.1267,3.1267,0,0,1-2.83-.0622,2.3368,2.3368,0,0,1-1.12-1.99,12.6526,12.6526,0,0,1,.0622-2.4255c.0622-.9329.1555-1.8657.2177-2.7986.0311-.4665.1554-.5909.6219-.5909a6.7627,6.7627,0,0,1,.7774.0311A1.1311,1.1311,0,0,1,54.4566,13.99c0,.6841-.0932,1.3682-.1554,2.0212a7.9238,7.9238,0,0,0-.1244,1.71.9961.9961,0,0,0,1.6481.7463,2.47,2.47,0,0,0,.8085-1.2127,9.3223,9.3223,0,0,0,.342-2.27c.0622-.6531.0933-1.275.1555-1.928.0311-.3421.1244-.4354.4665-.4354a3.7993,3.7993,0,0,1,1.1816.0933,1.1086,1.1086,0,0,1,.9018,1.1506c0,1.1505-.1244,2.27-.2177,3.4206-.0622,1.2127-.1865,2.3944-.28,3.6071A3.449,3.449,0,0,1,55.98,24.2824a7.0064,7.0064,0,0,1-3.2029-.28,3.12,3.12,0,0,1-1.12-.653,1.0728,1.0728,0,0,1,.4042-1.8658,1.547,1.547,0,0,1,.4043-.0932c.4975-.0933.5286-.0933.8085.342a1.4156,1.4156,0,0,0,1.2438.6219,1.6019,1.6019,0,0,0,1.928-1.3371A3.915,3.915,0,0,0,56.6023,19.5558Z"/><path class="cls-31" d="M45.0034,13.7719a.8508.8508,0,0,1,.1244-.1555,2.45,2.45,0,0,1,2.581-1.1194A2.5149,2.5149,0,0,1,50.01,14.5182a6.7983,6.7983,0,0,1-.3421,4.5711,3.8229,3.8229,0,0,1-3.3272,2.3012,5.713,5.713,0,0,1-1.928-.0933,2.7515,2.7515,0,0,1-2.3011-2.581,21.4959,21.4959,0,0,1,.0622-2.83c.1244-1.99.342-3.9492.4042-5.9393,0-.311.0311-.3421.3732-.3421a6.7346,6.7346,0,0,1,1.1194.0311,1.18,1.18,0,0,1,1.0884,1.275c0,.8707-.0933,1.71-.1555,2.5809A.4288.4288,0,0,1,45.0034,13.7719Zm-.342,3.4206a4.1225,4.1225,0,0,0,.1865,1.3993.9955.9955,0,0,0,1.0884.7152,1.2422,1.2422,0,0,0,1.0884-.7152,4.5671,4.5671,0,0,0,.342-3.2651.9426.9426,0,0,0-1.0572-.7774,1.3073,1.3073,0,0,0-1.275.8707A4.4251,4.4251,0,0,0,44.6614,17.1925Z"/><path class="cls-31" d="M37.54,20.0844a3.6443,3.6443,0,0,1-.4665.4976,3.0612,3.0612,0,0,1-3.2962.5908,1.866,1.866,0,0,1-1.1194-1.9591,2.6623,2.6623,0,0,1,1.9279-2.4255,8.0525,8.0525,0,0,1,2.8609-.5286c.1865,0,.28-.0622.28-.2488a3.2584,3.2584,0,0,0-.0311-.7774.6924.6924,0,0,0-.5908-.5908,1.0562,1.0562,0,0,0-1.3993.8085c-.0311.0622-.0311.1244-.0622.1866-.1244.4664-.1555.4975-.6219.4664-.1555,0-.311-.0311-.4665-.0311a1.121,1.121,0,0,1-1.0262-1.4615,2.2436,2.2436,0,0,1,1.0573-1.5237,4.1761,4.1761,0,0,1,1.8347-.5286,5.8574,5.8574,0,0,1,2.2078.1554,2.3286,2.3286,0,0,1,1.8036,2.27,19.0648,19.0648,0,0,1-.1555,2.3011c-.0311.3731-.0933.7774-.0933,1.1505a.7081.7081,0,0,0,.6219.8085c.28.0622.311.1866.311.4354a1.7938,1.7938,0,0,1-1.3371,1.7414,2.1534,2.1534,0,0,1-1.0884,0,1.4006,1.4006,0,0,1-1.0262-.964A1.0468,1.0468,0,0,1,37.54,20.0844Zm-.28-2.55a3.444,3.444,0,0,0-1.12.2488.9864.9864,0,0,0-.5908.4664.6569.6569,0,0,0-.0311.7464.6317.6317,0,0,0,.6219.3109,1.2769,1.2769,0,0,0,.8707-.342,1.84,1.84,0,0,0,.56-1.1506C37.6025,17.5345,37.5714,17.5345,37.2605,17.5345Z"/><path class="cls-31" d="M71.3108,17.5345a6.1212,6.1212,0,0,1,.4042-2.4255,3.8979,3.8979,0,0,1,3.1407-2.5809,6.2032,6.2032,0,0,1,2.3944,0,2.8517,2.8517,0,0,1,2.4255,2.6431,6.5783,6.5783,0,0,1-.4975,3.7005,4.0736,4.0736,0,0,1-3.4828,2.4566,5.8564,5.8564,0,0,1-1.8036-.0622,2.9691,2.9691,0,0,1-2.4877-2.55A7.5771,7.5771,0,0,1,71.3108,17.5345Zm5.7527-1.1816a3.7983,3.7983,0,0,0-.1243-1.0573,1.0646,1.0646,0,0,0-.9951-.7463,1.5164,1.5164,0,0,0-1.617.9951,4.7126,4.7126,0,0,0-.311,1.8658,3.01,3.01,0,0,0,.2488,1.2749,1.0561,1.0561,0,0,0,.9951.6219,1.4819,1.4819,0,0,0,1.3682-.964A5.1079,5.1079,0,0,0,77.0635,16.3529Z"/><path class="cls-31" d="M94.8505,12.4659a4.5755,4.5755,0,0,1,1.4927.1865,2.1158,2.1158,0,0,1,1.5237,2.3944,2.511,2.511,0,0,1-1.4927,2.1146,7.3938,7.3938,0,0,1-2.7364.6841c-.1866,0-.3421.0311-.5286.0311-.1244,0-.1866.0311-.1555.1866a1.45,1.45,0,0,0,1.8346,1.3682,1.2858,1.2858,0,0,0,.7463-.5286c.2488-.3421.3732-.3732.7775-.2488a1.1217,1.1217,0,0,1,.4975,1.8969,2.84,2.84,0,0,1-1.5859.7774,5.1564,5.1564,0,0,1-2.83-.1555,2.9848,2.9848,0,0,1-2.0523-2.3011,6.2058,6.2058,0,0,1,.7774-4.509,4.0777,4.0777,0,0,1,3.5761-1.8968Zm-.4664,2.0834a1.05,1.05,0,0,0-.9329.56,3.81,3.81,0,0,0-.4353,1.3061c-.0311.1555.0311.1555.1555.1555.1865-.0311.342-.0311.5286-.0622a2.0821,2.0821,0,0,0,1.2438-.56.8535.8535,0,0,0,.1555-.9639A.7582.7582,0,0,0,94.3841,14.5493Z"/><path class="cls-3" d="M65.3092,9.17a13.7883,13.7883,0,0,1,2.7676.0311,3.6424,3.6424,0,0,1,2.3011,1.0883,3.53,3.53,0,0,1,.84,1.8658,10.2716,10.2716,0,0,1-.4043,5.0376A4.7345,4.7345,0,0,1,66.3976,20.52a10.985,10.985,0,0,1-2.8609-.0933,2.59,2.59,0,0,1-.4664-.1244,1.217,1.217,0,0,1-.84-1.2439c0-.9328.0933-1.8657.1555-2.7986.1554-2.2078.4042-4.4157.4664-6.6546,0-.3109.0622-.3731.3732-.3731C63.8788,9.2319,64.5629,9.2008,65.3092,9.17ZM68.45,13.9585a4.14,4.14,0,0,0-.1866-1.3682,1.4116,1.4116,0,0,0-1.1194-.9951,5.7468,5.7468,0,0,0-1.4615,0c-.1555,0-.2177.0622-.2177.2487-.0933,1.99-.2488,4.0114-.4043,6.0016,0,.1866.0311.2177.1866.2177h.1555a2.3973,2.3973,0,0,0,2.7986-1.8658A7.9389,7.9389,0,0,0,68.45,13.9585Z"/><path class="cls-3" d="M31.3522,14.5493c.0311.0622.0933.0622.1555.0933A2.16,2.16,0,0,1,32.907,16.54a4.0178,4.0178,0,0,1-.0622,1.3682,2.9587,2.9587,0,0,1-2.0523,2.2078,8.7,8.7,0,0,1-4.6333.2488,1.4578,1.4578,0,0,1-1.3061-1.6481c0-1.12.1555-2.2389.2177-3.3584.1244-1.8969.3421-3.7937.4042-5.6906,0-.4042.0311-.4353.4354-.4353a26.5255,26.5255,0,0,1,3.5139-.0933,5.9836,5.9836,0,0,1,1.9279.4353,2.3934,2.3934,0,0,1,1.5859,2.3944,3.7192,3.7192,0,0,1-.2176,1.3061A2.2363,2.2363,0,0,1,31.3522,14.5493ZM28.74,18.4985a1.333,1.333,0,0,0,1.43-.84,1.85,1.85,0,0,0,.0311-1.0883,1.0733,1.0733,0,0,0-.8085-.8085,3.2292,3.2292,0,0,0-1.3372,0c-.1555.0311-.1866.0932-.1866.2176-.031.5287-.0932,1.0884-.0932,1.617,0,.2488-.1866.56.0622.7463a1.6594,1.6594,0,0,0,.7774.1555Zm.2177-7.1832a4.6384,4.6384,0,0,0-.653.0622c-.0933,0-.1555.0311-.1555.1555-.0311.6219-.0622,1.2438-.0933,1.8968,0,.0933.0311.1555.1244.1555a2.7879,2.7879,0,0,0,1.43,0,1.04,1.04,0,0,0,.7774-1.0572,1.0277,1.0277,0,0,0-.7463-1.0884A1.081,1.081,0,0,0,28.9578,11.3153Z"/><path class="cls-3" d="M87.5118,12.7146a2.3044,2.3044,0,0,0,.0311-.653c0-.2177.0933-.342.3421-.3109.3421.0311.6841,0,1.0262.0311a1.13,1.13,0,0,1,1.1194,1.1816,12.7345,12.7345,0,0,1-.0622,2.1767c-.0932,1.5859-.2176,3.1718-.4664,4.7577a7.609,7.609,0,0,1-.2488,1.1506,2.9923,2.9923,0,0,1-1.71,1.9591,6.1824,6.1824,0,0,1-4.4778.1243,2.0207,2.0207,0,0,1-.84-.5286,1.1968,1.1968,0,0,1-.4042-1.306,1.2882,1.2882,0,0,1,1.1194-.8085.61.61,0,0,1,.7152.3109,1.7056,1.7056,0,0,0,1.8036.6841,1.5194,1.5194,0,0,0,1.306-1.2127,4.3608,4.3608,0,0,0,.1866-1.5548c-.0933,0-.0933.0622-.1244.1244A2.4921,2.4921,0,0,1,84.4644,19.96a2.5573,2.5573,0,0,1-2.6121-2.3322,6.4258,6.4258,0,0,1,.5287-4.1669A3.36,3.36,0,0,1,86.1747,11.72a1.6644,1.6644,0,0,1,1.2128.9639c0,.0311.0311.0622.0622.0933C87.4808,12.7146,87.5118,12.7146,87.5118,12.7146Zm-.1243,2.6432a2.9949,2.9949,0,0,0-.1555-.9951.9706.9706,0,0,0-.9329-.6841,1.3388,1.3388,0,0,0-1.3371.7774,4.011,4.011,0,0,0-.311,2.55.8952.8952,0,0,0,.6841.7463,1.4917,1.4917,0,0,0,1.7414-.7774A3.3462,3.3462,0,0,0,87.3875,15.3578Z"/><path class="cls-3" d="M57.6285,18.6851a2.8592,2.8592,0,0,1-1.0573.964,3.1269,3.1269,0,0,1-2.83-.0622,2.3367,2.3367,0,0,1-1.1194-1.99,12.6526,12.6526,0,0,1,.0622-2.4255c.0622-.9329.1554-1.8657.2176-2.7986.0311-.4665.1555-.5909.622-.5909a6.7635,6.7635,0,0,1,.7774.0311,1.1311,1.1311,0,0,1,1.1816,1.3061c0,.6841-.0933,1.3682-.1555,2.0212a7.9237,7.9237,0,0,0-.1243,1.71.9961.9961,0,0,0,1.6481.7463A2.47,2.47,0,0,0,57.66,16.384a9.3272,9.3272,0,0,0,.342-2.27c.0622-.6531.0933-1.275.1555-1.928.0311-.3421.1244-.4353.4664-.4353a3.8028,3.8028,0,0,1,1.1817.0932,1.1086,1.1086,0,0,1,.9018,1.1506c0,1.1506-.1244,2.27-.2177,3.4206-.0622,1.2127-.1866,2.3944-.28,3.6071a3.4489,3.4489,0,0,1-3.2029,3.3895,7.0067,7.0067,0,0,1-3.2029-.28,3.12,3.12,0,0,1-1.1194-.653,1.0727,1.0727,0,0,1,.4042-1.8657,1.543,1.543,0,0,1,.4043-.0933c.4975-.0933.5286-.0933.8085.342a1.4155,1.4155,0,0,0,1.2438.6219,1.6019,1.6019,0,0,0,1.928-1.3371A4.589,4.589,0,0,0,57.6285,18.6851Z"/><path class="cls-3" d="M46.03,12.9012a.8508.8508,0,0,1,.1244-.1555,2.45,2.45,0,0,1,2.581-1.1194,2.515,2.515,0,0,1,2.3011,2.0212,6.7993,6.7993,0,0,1-.3421,4.5712A3.8231,3.8231,0,0,1,47.3667,20.52a5.7125,5.7125,0,0,1-1.9279-.0933,2.7513,2.7513,0,0,1-2.3011-2.581,21.5112,21.5112,0,0,1,.0621-2.83c.1244-1.99.3421-3.9493.4043-5.9394,0-.311.0311-.3421.3731-.3421a6.7355,6.7355,0,0,1,1.1195.0311,1.18,1.18,0,0,1,1.0884,1.275c0,.8707-.0933,1.71-.1555,2.5809Zm-.3421,3.4517a4.12,4.12,0,0,0,.1866,1.3993.9955.9955,0,0,0,1.0884.7152,1.2421,1.2421,0,0,0,1.0883-.7152,4.5666,4.5666,0,0,0,.3421-3.2651.9427.9427,0,0,0-1.0573-.7774,1.3073,1.3073,0,0,0-1.2749.8707A3.8683,3.8683,0,0,0,45.6875,16.3529Z"/><path class="cls-3" d="M38.5354,19.2448a3.6439,3.6439,0,0,1-.4664.4976,3.061,3.061,0,0,1-3.2962.5908,1.8661,1.8661,0,0,1-1.1195-1.9591,2.6624,2.6624,0,0,1,1.928-2.4255,8.0524,8.0524,0,0,1,2.8608-.5286c.1866,0,.28-.0622.28-.2488a3.2584,3.2584,0,0,0-.0311-.7774A.6925.6925,0,0,0,38.1,13.803a1.0561,1.0561,0,0,0-1.3993.8085c-.0311.0622-.0311.1244-.0622.1866-.1244.4664-.1555.4975-.622.4664-.1554,0-.3109-.0311-.4664-.0311a1.1209,1.1209,0,0,1-1.0262-1.4615,2.2436,2.2436,0,0,1,1.0573-1.5237A4.1757,4.1757,0,0,1,37.416,11.72a5.8574,5.8574,0,0,1,2.2078.1554,2.3286,2.3286,0,0,1,1.8036,2.27,19.0648,19.0648,0,0,1-.1555,2.3011c-.0311.3731-.0933.7774-.0933,1.15a.7081.7081,0,0,0,.6219.8085c.28.0622.311.1866.311.4354a1.7938,1.7938,0,0,1-1.3372,1.7414,2.153,2.153,0,0,1-1.0883,0,1.4006,1.4006,0,0,1-1.0262-.964A2.6116,2.6116,0,0,1,38.5354,19.2448Zm-.28-2.55a3.444,3.444,0,0,0-1.12.2488.9859.9859,0,0,0-.5908.4665.6567.6567,0,0,0-.0311.7463.6316.6316,0,0,0,.6219.3109,1.2769,1.2769,0,0,0,.8707-.342,1.84,1.84,0,0,0,.56-1.1506C38.5976,16.6949,38.5976,16.6638,38.2556,16.6949Z"/><path class="cls-3" d="M72.3369,16.6949a6.1215,6.1215,0,0,1,.4043-2.4255,3.8979,3.8979,0,0,1,3.1407-2.5809,6.2032,6.2032,0,0,1,2.3944,0,2.8517,2.8517,0,0,1,2.4255,2.6431,6.5783,6.5783,0,0,1-.4975,3.7005,4.0737,4.0737,0,0,1-3.4828,2.4566,5.8563,5.8563,0,0,1-1.8036-.0622,2.9691,2.9691,0,0,1-2.4877-2.55A5.3218,5.3218,0,0,1,72.3369,16.6949Zm5.7217-1.1816a3.7945,3.7945,0,0,0-.1244-1.0573,1.0644,1.0644,0,0,0-.995-.7463,1.5164,1.5164,0,0,0-1.617.9951,4.7126,4.7126,0,0,0-.311,1.8658,3.01,3.01,0,0,0,.2488,1.2749,1.0559,1.0559,0,0,0,.995.6219,1.4819,1.4819,0,0,0,1.3683-.964A5.11,5.11,0,0,0,78.0586,15.5133Z"/><path class="cls-3" d="M95.8767,11.5952a4.5721,4.5721,0,0,1,1.4926.1866,2.1155,2.1155,0,0,1,1.5237,2.3944A2.5109,2.5109,0,0,1,97.4,16.2907a7.3943,7.3943,0,0,1-2.7364.6841c-.1866,0-.3421.0311-.5287.0311-.1244,0-.1866.0311-.1555.1866a1.45,1.45,0,0,0,1.8347,1.3682,1.2861,1.2861,0,0,0,.7463-.5286c.2488-.3421.3732-.3732.7774-.2488a1.1217,1.1217,0,0,1,.4976,1.8969,2.84,2.84,0,0,1-1.5859.7774,5.1564,5.1564,0,0,1-2.83-.1555,2.9844,2.9844,0,0,1-2.0523-2.3011,6.2058,6.2058,0,0,1,.7774-4.509,4.0776,4.0776,0,0,1,3.576-1.8968ZM95.41,13.71a1.0494,1.0494,0,0,0-.9329.56,3.81,3.81,0,0,0-.4354,1.3061c-.0311.1555.0311.1555.1555.1555.1866-.0311.3421-.0311.5287-.0622a2.0823,2.0823,0,0,0,1.2438-.56.8535.8535,0,0,0,.1555-.9639A.7391.7391,0,0,0,95.41,13.71Z"/></g></svg>